<svg width="61" height="61" viewBox="0 0 61 61" fill="none" xmlns="http://www.w3.org/2000/svg">
<path d="M48.4063 12.249L12.4062 48.249" stroke="#3C4196" stroke-miterlimit="10" stroke-linecap="round"/>
<mask id="path-2-outside-1_867_16224" maskUnits="userSpaceOnUse" x="23.1387" y="22.9629" width="27" height="27" fill="black">
<rect fill="white" x="23.1387" y="22.9629" width="27" height="27"/>
<path d="M39.2927 24.9629C39.3167 25.0109 39.3407 25.0649 39.3527 25.1189C39.4007 25.3049 39.3767 25.4969 39.2807 25.6589L37.1207 29.4029V34.5209L40.7387 30.9029L41.8547 26.7269C41.9387 26.4149 42.2207 26.1989 42.5447 26.1989C42.6047 26.1989 42.6707 26.2049 42.7307 26.2229C42.8507 26.2529 42.9647 26.3189 43.0487 26.4089C43.2287 26.5889 43.3007 26.8529 43.2347 27.0989L42.7547 28.8869L44.0867 27.5489C44.2187 27.4169 44.3987 27.3389 44.5907 27.3389C44.7827 27.3389 44.9627 27.4109 45.0947 27.5489C45.3707 27.8249 45.3707 28.2809 45.0947 28.5569L43.7627 29.8889L45.5507 29.4089C45.6107 29.3909 45.6707 29.3849 45.7367 29.3849C45.9227 29.3849 46.1087 29.4629 46.2407 29.5949C46.3307 29.6849 46.3907 29.7929 46.4267 29.9129C46.4747 30.0989 46.4507 30.2909 46.3547 30.4529C46.2587 30.6149 46.1027 30.7349 45.9227 30.7829L41.7467 31.8989L38.1227 35.5169H43.2407L46.9847 33.3569C47.0927 33.2969 47.2187 33.2609 47.3387 33.2609C47.5907 33.2609 47.8307 33.3989 47.9567 33.6149C48.0167 33.7229 48.0527 33.8489 48.0527 33.9749C48.0527 34.2269 47.9147 34.4669 47.6987 34.5929L46.0967 35.5169H47.9867C48.3827 35.5169 48.7007 35.8349 48.7007 36.2309C48.7007 36.6269 48.3827 36.9449 47.9867 36.9449H46.0967L47.6987 37.8689C47.9207 37.9949 48.0527 38.2349 48.0527 38.4869C48.0527 38.6129 48.0227 38.7329 47.9567 38.8409C47.8307 39.0629 47.5907 39.1949 47.3387 39.1949C47.2127 39.1949 47.0927 39.1589 46.9787 39.0989L43.2347 36.9389H38.1167L41.7347 40.5569L45.9107 41.6729C46.2887 41.7749 46.5167 42.1649 46.4147 42.5489C46.3847 42.6689 46.3187 42.7769 46.2287 42.8669C46.0967 42.9989 45.9107 43.0769 45.7247 43.0769C45.6647 43.0769 45.5987 43.0709 45.5387 43.0529L43.7507 42.5729L45.0827 43.9049C45.3587 44.1809 45.3587 44.6369 45.0827 44.9129C44.9507 45.0449 44.7707 45.1229 44.5787 45.1229C44.3867 45.1229 44.2067 45.0509 44.0747 44.9129L42.7427 43.5809L43.2227 45.3689C43.2887 45.6149 43.2227 45.8789 43.0367 46.0589C42.9467 46.1489 42.8387 46.2089 42.7187 46.2449C42.6587 46.2629 42.5987 46.2689 42.5327 46.2689C42.2087 46.2689 41.9267 46.0529 41.8427 45.7409L40.7267 41.5649L37.1087 37.9409V43.0589L39.2687 46.8029C39.4667 47.1449 39.3467 47.5829 39.0107 47.7749C38.9027 47.8349 38.7767 47.8709 38.6507 47.8709C38.3987 47.8709 38.1587 47.7329 38.0327 47.5169L37.1087 45.9149V47.8049C37.1087 48.2009 36.7907 48.5189 36.3947 48.5189C35.9987 48.5189 35.6807 48.2009 35.6807 47.8049V45.9149L34.7567 47.5169C34.6307 47.7389 34.3907 47.8709 34.1387 47.8709C34.0127 47.8709 33.8927 47.8409 33.7847 47.7749C33.6167 47.6789 33.5027 47.5229 33.4547 47.3429C33.4067 47.1629 33.4307 46.9649 33.5267 46.8029L35.6867 43.0589V37.9409L32.0687 41.5589L30.9527 45.7349C30.8687 46.0469 30.5867 46.2629 30.2627 46.2629C30.2027 46.2629 30.1367 46.2569 30.0767 46.2389C29.8907 46.1909 29.7407 46.0709 29.6447 45.9089C29.5487 45.7409 29.5247 45.5489 29.5727 45.3689L30.0527 43.5809L28.7147 44.9129C28.5827 45.0449 28.4027 45.1229 28.2107 45.1229C28.0187 45.1229 27.8387 45.0509 27.7067 44.9129C27.4307 44.6369 27.4307 44.1809 27.7067 43.9049L29.0447 42.5669L27.2567 43.0469C27.1967 43.0649 27.1367 43.0709 27.0707 43.0709C26.7467 43.0709 26.4647 42.8549 26.3807 42.5429C26.3327 42.3569 26.3567 42.1649 26.4527 42.0029C26.5487 41.8349 26.7047 41.7209 26.8847 41.6729L31.0607 40.5509L34.6787 36.9329H29.5607L25.8167 39.0929C25.7087 39.1529 25.5827 39.1889 25.4627 39.1889C25.3967 39.1889 25.3307 39.1829 25.2707 39.1649C25.2227 39.1529 25.1807 39.1349 25.1387 39.1169"/>
</mask>
<path d="M40.1871 24.5157C39.9401 24.0217 39.3394 23.8215 38.8455 24.0685C38.3515 24.3155 38.1513 24.9161 38.3982 25.4101L40.1871 24.5157ZM39.3527 25.1189L38.3765 25.3358L38.3802 25.3524L38.3844 25.3688L39.3527 25.1189ZM39.2807 25.6589L38.4203 25.1491L38.4145 25.1592L39.2807 25.6589ZM37.1207 29.4029L36.2545 28.9032L36.1207 29.1351V29.4029H37.1207ZM37.1207 34.5209H36.1207V36.9351L37.8278 35.228L37.1207 34.5209ZM40.7387 30.9029L41.4458 31.61L41.6355 31.4203L41.7048 31.1611L40.7387 30.9029ZM41.8547 26.7269L40.8891 26.4669L40.8886 26.4687L41.8547 26.7269ZM42.7307 26.2229L42.4433 27.1807L42.4656 27.1874L42.4881 27.193L42.7307 26.2229ZM43.0487 26.4089L42.3176 27.0912L42.3294 27.1038L42.3416 27.116L43.0487 26.4089ZM43.2347 27.0989L44.2005 27.3582L44.2005 27.358L43.2347 27.0989ZM42.7547 28.8869L41.7889 28.6276L40.816 32.2517L43.4634 29.5924L42.7547 28.8869ZM44.0867 27.5489L43.3796 26.8418L43.378 26.8434L44.0867 27.5489ZM45.0947 27.5489L44.372 28.2401L44.3797 28.2481L44.3876 28.256L45.0947 27.5489ZM45.0947 28.5569L44.3876 27.8498L45.0947 28.5569ZM43.7627 29.8889L43.0556 29.1818L40.4141 31.8233L44.0219 30.8547L43.7627 29.8889ZM45.5507 29.4089L45.8099 30.3747L45.824 30.3709L45.838 30.3667L45.5507 29.4089ZM46.2407 29.5949L46.9478 28.8878L46.2407 29.5949ZM46.4267 29.9129L47.3949 29.663L47.3901 29.6442L47.3845 29.6255L46.4267 29.9129ZM45.9227 30.7829L45.665 29.8167L45.6645 29.8168L45.9227 30.7829ZM41.7467 31.8989L41.4885 30.9328L41.2297 31.002L41.0402 31.1912L41.7467 31.8989ZM38.1227 35.5169L37.4162 34.8092L35.7056 36.5169H38.1227V35.5169ZM43.2407 35.5169V36.5169H43.5084L43.7404 36.3831L43.2407 35.5169ZM46.9847 33.3569L46.499 32.4827L46.492 32.4867L46.4849 32.4907L46.9847 33.3569ZM47.9567 33.6149L48.8308 33.1293L48.8257 33.1201L48.8205 33.111L47.9567 33.6149ZM47.6987 34.5929L48.1983 35.4591L48.2025 35.4567L47.6987 34.5929ZM46.0967 35.5169L45.597 34.6507L42.3614 36.5169H46.0967V35.5169ZM46.0967 36.9449V35.9449H42.3614L45.597 37.8111L46.0967 36.9449ZM47.6987 37.8689L47.199 38.7352L47.2051 38.7386L47.6987 37.8689ZM47.9567 38.8409L47.1034 38.3194L47.095 38.3332L47.087 38.3473L47.9567 38.8409ZM46.9787 39.0989L46.479 39.9651L46.4958 39.9748L46.5129 39.9838L46.9787 39.0989ZM43.2347 36.9389L43.7344 36.0727L43.5024 35.9389H43.2347V36.9389ZM38.1167 36.9389V35.9389H35.7025L37.4096 37.646L38.1167 36.9389ZM41.7347 40.5569L41.0276 41.264L41.2173 41.4537L41.4765 41.523L41.7347 40.5569ZM45.9107 41.6729L46.1712 40.7074L46.1688 40.7068L45.9107 41.6729ZM46.4147 42.5489L45.4482 42.2922L45.4463 42.2992L45.4445 42.3064L46.4147 42.5489ZM46.2287 42.8669L46.9358 43.574L46.2287 42.8669ZM45.5387 43.0529L45.826 42.0951L45.812 42.0909L45.7979 42.0871L45.5387 43.0529ZM43.7507 42.5729L44.0099 41.6071L40.4021 40.6386L43.0436 43.28L43.7507 42.5729ZM45.0827 43.9049L45.7898 43.1978L45.0827 43.9049ZM45.0827 44.9129L44.3756 44.2058L45.0827 44.9129ZM44.0747 44.9129L44.7973 44.2217L44.7896 44.2136L44.7818 44.2058L44.0747 44.9129ZM42.7427 43.5809L43.4498 42.8738L40.8083 40.2323L41.7769 43.8402L42.7427 43.5809ZM43.2227 45.3689L44.1885 45.1098L44.1885 45.1096L43.2227 45.3689ZM43.0367 46.0589L42.3413 45.3403L42.3354 45.346L42.3296 45.3518L43.0367 46.0589ZM41.8427 45.7409L40.8766 45.9991L40.8771 46.0009L41.8427 45.7409ZM40.7267 41.5649L41.6928 41.3067L41.6236 41.0479L41.4344 40.8584L40.7267 41.5649ZM37.1087 37.9409L37.8164 37.2344L36.1087 35.5238V37.9409H37.1087ZM37.1087 43.0589H36.1087V43.3267L36.2425 43.5586L37.1087 43.0589ZM39.2687 46.8029L38.4025 47.3026L38.4032 47.3039L39.2687 46.8029ZM39.0107 47.7749L39.4963 48.6491L39.5068 48.6431L39.0107 47.7749ZM38.0327 47.5169L37.1664 48.0165L37.1689 48.0208L38.0327 47.5169ZM37.1087 45.9149L37.9749 45.4153L36.1087 42.1796V45.9149H37.1087ZM35.6807 45.9149H36.6807V42.1796L34.8144 45.4153L35.6807 45.9149ZM34.7567 47.5169L33.8904 47.0173L33.887 47.0233L34.7567 47.5169ZM33.7847 47.7749L34.3061 46.9216L34.2936 46.9139L34.2808 46.9067L33.7847 47.7749ZM33.5267 46.8029L34.387 47.3127L34.3929 47.3026L33.5267 46.8029ZM35.6867 43.0589L36.5529 43.5586L36.6867 43.3267V43.0589H35.6867ZM35.6867 37.9409H36.6867V35.5267L34.9796 37.2338L35.6867 37.9409ZM32.0687 41.5589L31.3616 40.8518L31.1718 41.0415L31.1026 41.3007L32.0687 41.5589ZM30.9527 45.7349L31.9183 45.9949L31.9188 45.9931L30.9527 45.7349ZM30.0767 46.2389L30.364 45.2811L30.3454 45.2755L30.3265 45.2706L30.0767 46.2389ZM29.6447 45.9089L28.7764 46.405L28.7803 46.4119L28.7844 46.4187L29.6447 45.9089ZM29.5727 45.3689L28.6069 45.1096L28.6064 45.1112L29.5727 45.3689ZM30.0527 43.5809L31.0185 43.8402L31.9827 40.2485L29.3472 42.8722L30.0527 43.5809ZM28.7147 44.9129L28.0092 44.2042L28.0076 44.2058L28.7147 44.9129ZM27.7067 44.9129L28.4293 44.2217L28.4216 44.2136L28.4138 44.2058L27.7067 44.9129ZM27.7067 43.9049L28.4138 44.612L28.4138 44.612L27.7067 43.9049ZM29.0447 42.5669L29.7518 43.274L32.3932 40.6325L28.7854 41.6011L29.0447 42.5669ZM27.2567 43.0469L26.9974 42.0811L26.9833 42.0849L26.9693 42.0891L27.2567 43.0469ZM26.3807 42.5429L25.4123 42.7928L25.4151 42.8029L26.3807 42.5429ZM26.4527 42.0029L27.313 42.5127L27.317 42.5059L27.3209 42.499L26.4527 42.0029ZM26.8847 41.6729L27.1423 42.6391L27.1441 42.6386L26.8847 41.6729ZM31.0607 40.5509L31.3201 41.5166L31.5786 41.4472L31.7678 41.258L31.0607 40.5509ZM34.6787 36.9329L35.3858 37.64L37.0929 35.9329H34.6787V36.9329ZM29.5607 36.9329V35.9329H29.2929L29.0609 36.0667L29.5607 36.9329ZM25.8167 39.0929L26.3023 39.967L26.3094 39.9631L26.3164 39.9591L25.8167 39.0929ZM25.2707 39.1649L25.558 38.2071L25.5358 38.2004L25.5132 38.1948L25.2707 39.1649ZM25.5326 38.1977C25.025 37.9802 24.4371 38.2153 24.2195 38.723C24.002 39.2306 24.2371 39.8185 24.7448 40.036L25.5326 38.1977ZM38.3982 25.4101C38.4034 25.4204 38.4023 25.4189 38.3987 25.4101C38.3954 25.4017 38.3853 25.3756 38.3765 25.3358L40.3289 24.902C40.2895 24.7248 40.2202 24.5819 40.1871 24.5157L38.3982 25.4101ZM38.3844 25.3688C38.3699 25.3125 38.373 25.2291 38.4204 25.1491L40.141 26.1687C40.3804 25.7647 40.4315 25.2972 40.321 24.869L38.3844 25.3688ZM38.4145 25.1592L36.2545 28.9032L37.9869 29.9026L40.1469 26.1586L38.4145 25.1592ZM36.1207 29.4029V34.5209H38.1207V29.4029H36.1207ZM37.8278 35.228L41.4458 31.61L40.0316 30.1958L36.4136 33.8138L37.8278 35.228ZM41.7048 31.1611L42.8208 26.9851L40.8886 26.4687L39.7726 30.6447L41.7048 31.1611ZM42.8203 26.9869C42.7865 27.1124 42.6718 27.1989 42.5447 27.1989V25.1989C41.7695 25.1989 41.0909 25.7173 40.8891 26.4669L42.8203 26.9869ZM42.5447 27.1989C42.5422 27.1989 42.5336 27.1988 42.5195 27.1971C42.5059 27.1955 42.4792 27.1915 42.4433 27.1807L43.018 25.2651C42.8329 25.2095 42.6619 25.1989 42.5447 25.1989V27.1989ZM42.4881 27.193C42.4541 27.1845 42.4249 27.1721 42.3993 27.1572C42.3738 27.1423 42.3457 27.1213 42.3176 27.0912L43.7797 25.7266C43.56 25.4911 43.2745 25.3281 42.9732 25.2527L42.4881 27.193ZM42.3416 27.116C42.2716 27.046 42.2412 26.9426 42.2688 26.8398L44.2005 27.358C44.3601 26.7632 44.1858 26.1318 43.7558 25.7018L42.3416 27.116ZM42.2689 26.8396L41.7889 28.6276L43.7205 29.1462L44.2005 27.3582L42.2689 26.8396ZM43.4634 29.5924L44.7954 28.2544L43.378 26.8434L42.046 28.1814L43.4634 29.5924ZM44.7938 28.256C44.7442 28.3056 44.6722 28.3389 44.5907 28.3389V26.3389C44.1251 26.3389 43.6931 26.5282 43.3796 26.8418L44.7938 28.256ZM44.5907 28.3389C44.5285 28.3389 44.4413 28.3125 44.372 28.2401L45.8173 26.8577C45.4841 26.5093 45.0368 26.3389 44.5907 26.3389V28.3389ZM44.3876 28.256C44.273 28.1415 44.273 27.9643 44.3876 27.8498L45.8018 29.264C46.4683 28.5975 46.4683 27.5083 45.8018 26.8418L44.3876 28.256ZM44.3876 27.8498L43.0556 29.1818L44.4698 30.596L45.8018 29.264L44.3876 27.8498ZM44.0219 30.8547L45.8099 30.3747L45.2914 28.4431L43.5034 28.9231L44.0219 30.8547ZM45.838 30.3667C45.7759 30.3853 45.7324 30.3849 45.7367 30.3849V28.3849C45.6089 28.3849 45.4454 28.3964 45.2633 28.4511L45.838 30.3667ZM45.7367 30.3849C45.691 30.3849 45.6534 30.3756 45.6237 30.3632C45.5941 30.3509 45.5631 30.3316 45.5336 30.302L46.9478 28.8878C46.631 28.571 46.1918 28.3849 45.7367 28.3849V30.3849ZM45.5336 30.302C45.5149 30.2834 45.4995 30.2628 45.4879 30.2427C45.4766 30.2231 45.4711 30.2078 45.4688 30.2002L47.3845 29.6255C47.3069 29.367 47.1687 29.1087 46.9478 28.8878L45.5336 30.302ZM45.4584 30.1628C45.4439 30.1066 45.447 30.0231 45.4944 29.9431L47.215 30.9627C47.4544 30.5587 47.5055 30.0912 47.3949 29.663L45.4584 30.1628ZM45.4944 29.9431C45.5281 29.8862 45.5852 29.8379 45.665 29.8167L46.1803 31.7491C46.6201 31.6319 46.9892 31.3436 47.215 30.9627L45.4944 29.9431ZM45.6645 29.8168L41.4885 30.9328L42.0049 32.865L46.1809 31.749L45.6645 29.8168ZM41.0402 31.1912L37.4162 34.8092L38.8292 36.2246L42.4532 32.6066L41.0402 31.1912ZM38.1227 36.5169H43.2407V34.5169H38.1227V36.5169ZM43.7404 36.3831L47.4844 34.2231L46.4849 32.4907L42.7409 34.6507L43.7404 36.3831ZM47.4703 34.231C47.4554 34.2394 47.4399 34.2458 47.4223 34.2506C47.4051 34.2553 47.3772 34.2609 47.3387 34.2609V32.2609C47.0289 32.2609 46.7372 32.3504 46.499 32.4827L47.4703 34.231ZM47.3387 34.2609C47.2826 34.2609 47.235 34.2459 47.1975 34.2244C47.1601 34.2029 47.1222 34.1689 47.0929 34.1188L48.8205 33.111C48.5147 32.5869 47.9452 32.2609 47.3387 32.2609V34.2609ZM47.0825 34.1005C47.074 34.0852 47.0672 34.0687 47.0621 34.0503C47.0571 34.0317 47.0527 34.0066 47.0527 33.9749H49.0527C49.0527 33.6632 48.9654 33.3715 48.8308 33.1293L47.0825 34.1005ZM47.0527 33.9749C47.0527 33.9188 47.0677 33.8712 47.0892 33.8337C47.1106 33.7963 47.1446 33.7584 47.1948 33.7291L48.2025 35.4567C48.7267 35.1509 49.0527 34.5815 49.0527 33.9749H47.0527ZM47.199 33.7267L45.597 34.6507L46.5963 36.3831L48.1983 35.4591L47.199 33.7267ZM46.0967 36.5169H47.9867V34.5169H46.0967V36.5169ZM47.9867 36.5169C47.8304 36.5169 47.7007 36.3872 47.7007 36.2309H49.7007C49.7007 35.2826 48.935 34.5169 47.9867 34.5169V36.5169ZM47.7007 36.2309C47.7007 36.0746 47.8304 35.9449 47.9867 35.9449V37.9449C48.935 37.9449 49.7007 37.1792 49.7007 36.2309H47.7007ZM47.9867 35.9449H46.0967V37.9449H47.9867V35.9449ZM45.597 37.8111L47.199 38.7351L48.1983 37.0027L46.5963 36.0787L45.597 37.8111ZM47.2051 38.7386C47.0983 38.678 47.0527 38.5762 47.0527 38.4869H49.0527C49.0527 37.8935 48.7431 37.3118 48.1923 36.9992L47.2051 38.7386ZM47.0527 38.4869C47.0527 38.4703 47.0547 38.4449 47.063 38.4137C47.0714 38.382 47.0849 38.3496 47.1034 38.3194L48.81 39.3623C48.9821 39.0807 49.0527 38.7764 49.0527 38.4869H47.0527ZM47.087 38.3473C47.1476 38.2405 47.2493 38.1949 47.3387 38.1949V40.1949C47.932 40.1949 48.5137 39.8853 48.8264 39.3345L47.087 38.3473ZM47.3387 38.1949C47.409 38.1949 47.4483 38.216 47.4444 38.214L46.5129 39.9838C46.7371 40.1018 47.0164 40.1949 47.3387 40.1949V38.1949ZM47.4784 38.2327L43.7344 36.0727L42.7349 37.8051L46.479 39.9651L47.4784 38.2327ZM43.2347 35.9389H38.1167V37.9389H43.2347V35.9389ZM37.4096 37.646L41.0276 41.264L42.4418 39.8498L38.8238 36.2318L37.4096 37.646ZM41.4765 41.523L45.6525 42.639L46.1688 40.7068L41.9929 39.5908L41.4765 41.523ZM45.6501 42.6384C45.4972 42.5971 45.4086 42.4413 45.4482 42.2922L47.3812 42.8056C47.6248 41.8885 47.0801 40.9527 46.1712 40.7074L45.6501 42.6384ZM45.4445 42.3064C45.4646 42.2259 45.5026 42.1787 45.5216 42.1598L46.9358 43.574C47.1347 43.3751 47.3047 43.1119 47.3848 42.7914L45.4445 42.3064ZM45.5216 42.1598C45.5511 42.1302 45.5821 42.1109 45.6117 42.0986C45.6414 42.0862 45.679 42.0769 45.7247 42.0769V44.0769C46.1798 44.0769 46.619 43.8908 46.9358 43.574L45.5216 42.1598ZM45.7247 42.0769C45.7271 42.0769 45.7357 42.077 45.7499 42.0787C45.7635 42.0803 45.7901 42.0843 45.826 42.0951L45.2513 44.0107C45.4364 44.0663 45.6074 44.0769 45.7247 44.0769V42.0769ZM45.7979 42.0871L44.0099 41.6071L43.4914 43.5387L45.2794 44.0187L45.7979 42.0871ZM43.0436 43.28L44.3756 44.612L45.7898 43.1978L44.4578 41.8658L43.0436 43.28ZM44.3756 44.612C44.261 44.4975 44.261 44.3203 44.3756 44.2058L45.7898 45.62C46.4563 44.9535 46.4563 43.8643 45.7898 43.1978L44.3756 44.612ZM44.3756 44.2058C44.4251 44.1562 44.4971 44.1229 44.5787 44.1229V46.1229C45.0442 46.1229 45.4762 45.9336 45.7898 45.62L44.3756 44.2058ZM44.5787 44.1229C44.6408 44.1229 44.7281 44.1493 44.7973 44.2217L43.352 45.6041C43.6853 45.9525 44.1325 46.1229 44.5787 46.1229V44.1229ZM44.7818 44.2058L43.4498 42.8738L42.0356 44.288L43.3676 45.62L44.7818 44.2058ZM41.7769 43.8402L42.2569 45.6282L44.1885 45.1096L43.7085 43.3216L41.7769 43.8402ZM42.2568 45.628C42.2334 45.5407 42.2535 45.4252 42.3413 45.3403L43.7321 46.7775C44.1919 46.3325 44.3439 45.6891 44.1885 45.1098L42.2568 45.628ZM42.3296 45.3518C42.3482 45.3331 42.3688 45.3178 42.3888 45.3062C42.4085 45.2948 42.4238 45.2893 42.4313 45.2871L43.006 47.2027C43.2645 47.1252 43.5228 46.9869 43.7438 46.766L42.3296 45.3518ZM42.4313 45.2871C42.4934 45.2684 42.537 45.2689 42.5327 45.2689V47.2689C42.6604 47.2689 42.8239 47.2574 43.006 47.2027L42.4313 45.2871ZM42.5327 45.2689C42.6598 45.2689 42.7745 45.3553 42.8083 45.4809L40.8771 46.0009C41.0789 46.7505 41.7575 47.2689 42.5327 47.2689V45.2689ZM42.8088 45.4827L41.6928 41.3067L39.7606 41.8231L40.8766 45.9991L42.8088 45.4827ZM41.4344 40.8584L37.8164 37.2344L36.401 38.6474L40.019 42.2714L41.4344 40.8584ZM36.1087 37.9409V43.0589H38.1087V37.9409H36.1087ZM36.2425 43.5586L38.4025 47.3026L40.1349 46.3032L37.9749 42.5592L36.2425 43.5586ZM38.4032 47.3039C38.3248 47.1685 38.3666 46.9912 38.5145 46.9067L39.5068 48.6431C40.3267 48.1746 40.6085 47.1213 40.1341 46.3019L38.4032 47.3039ZM38.525 46.9007C38.5404 46.8922 38.5568 46.8854 38.5753 46.8804C38.5938 46.8753 38.619 46.8709 38.6507 46.8709V48.8709C38.9623 48.8709 39.2541 48.7836 39.4963 48.6491L38.525 46.9007ZM38.6507 46.8709C38.7068 46.8709 38.7544 46.8859 38.7919 46.9074C38.8293 46.9288 38.8672 46.9628 38.8965 47.013L37.1689 48.0208C37.4747 48.5449 38.0441 48.8709 38.6507 48.8709V46.8709ZM38.8989 47.0173L37.9749 45.4153L36.2424 46.4145L37.1664 48.0165L38.8989 47.0173ZM36.1087 45.9149V47.8049H38.1087V45.9149H36.1087ZM36.1087 47.8049C36.1087 47.6486 36.2384 47.5189 36.3947 47.5189V49.5189C37.343 49.5189 38.1087 48.7532 38.1087 47.8049H36.1087ZM36.3947 47.5189C36.551 47.5189 36.6807 47.6486 36.6807 47.8049H34.6807C34.6807 48.7532 35.4464 49.5189 36.3947 49.5189V47.5189ZM36.6807 47.8049V45.9149H34.6807V47.8049H36.6807ZM34.8144 45.4153L33.8904 47.0173L35.6229 48.0165L36.5469 46.4145L34.8144 45.4153ZM33.887 47.0233C33.9476 46.9165 34.0493 46.8709 34.1387 46.8709V48.8709C34.732 48.8709 35.3137 48.5613 35.6264 48.0105L33.887 47.0233ZM34.1387 46.8709C34.1553 46.8709 34.1807 46.8729 34.2118 46.8812C34.2435 46.8896 34.2759 46.9032 34.3061 46.9216L33.2632 48.6282C33.5449 48.8003 33.8492 48.8709 34.1387 48.8709V46.8709ZM34.2808 46.9067C34.3564 46.9499 34.4036 47.0203 34.4209 47.0852L32.4884 47.6006C32.6018 48.0255 32.8769 48.4079 33.2885 48.6431L34.2808 46.9067ZM34.4209 47.0852C34.4392 47.1539 34.4337 47.2339 34.387 47.3127L32.6664 46.2931C32.4277 46.6959 32.3741 47.1719 32.4884 47.6006L34.4209 47.0852ZM34.3929 47.3026L36.5529 43.5586L34.8205 42.5592L32.6605 46.3032L34.3929 47.3026ZM36.6867 43.0589V37.9409H34.6867V43.0589H36.6867ZM34.9796 37.2338L31.3616 40.8518L32.7758 42.266L36.3938 38.648L34.9796 37.2338ZM31.1026 41.3007L29.9866 45.4767L31.9188 45.9931L33.0348 41.8171L31.1026 41.3007ZM29.9871 45.4749C30.0209 45.3493 30.1355 45.2629 30.2627 45.2629V47.2629C31.0378 47.2629 31.7165 46.7444 31.9183 45.9949L29.9871 45.4749ZM30.2627 45.2629C30.2651 45.2629 30.2737 45.263 30.2879 45.2647C30.3015 45.2663 30.3281 45.2703 30.364 45.2811L29.7893 47.1967C29.9744 47.2523 30.1455 47.2629 30.2627 47.2629V45.2629ZM30.3265 45.2706C30.4159 45.2937 30.4766 45.3512 30.505 45.3991L28.7844 46.4187C29.0048 46.7906 29.3655 47.0881 29.8268 47.2072L30.3265 45.2706ZM30.5129 45.4128C30.5467 45.4719 30.5592 45.5506 30.5389 45.6266L28.6064 45.1112C28.4902 45.5472 28.5506 46.0099 28.7764 46.405L30.5129 45.4128ZM30.5385 45.6282L31.0185 43.8402L29.0869 43.3216L28.6069 45.1096L30.5385 45.6282ZM29.3472 42.8722L28.0092 44.2042L29.4202 45.6216L30.7582 44.2896L29.3472 42.8722ZM28.0076 44.2058C28.0571 44.1562 28.1291 44.1229 28.2107 44.1229V46.1229C28.6762 46.1229 29.1082 45.9336 29.4218 45.62L28.0076 44.2058ZM28.2107 44.1229C28.2728 44.1229 28.3601 44.1493 28.4293 44.2217L26.984 45.6041C27.3173 45.9525 27.7645 46.1229 28.2107 46.1229V44.1229ZM28.4138 44.2058C28.5283 44.3203 28.5283 44.4975 28.4138 44.612L26.9996 43.1978C26.333 43.8643 26.333 44.9535 26.9996 45.62L28.4138 44.2058ZM28.4138 44.612L29.7518 43.274L28.3376 41.8598L26.9996 43.1978L28.4138 44.612ZM28.7854 41.6011L26.9974 42.0811L27.5159 44.0127L29.3039 43.5327L28.7854 41.6011ZM26.9693 42.0891C27.0314 42.0704 27.0749 42.0709 27.0707 42.0709V44.0709C27.1984 44.0709 27.362 44.0593 27.544 44.0047L26.9693 42.0891ZM27.0707 42.0709C27.1978 42.0709 27.3125 42.1573 27.3463 42.2829L25.4151 42.8029C25.6169 43.5524 26.2955 44.0709 27.0707 44.0709V42.0709ZM27.3489 42.293C27.3635 42.3492 27.3604 42.4327 27.313 42.5127L25.5924 41.4931C25.353 41.8971 25.3019 42.3646 25.4124 42.7928L27.3489 42.293ZM27.3209 42.499C27.2777 42.5746 27.2073 42.6218 27.1423 42.6391L26.627 40.7067C26.2021 40.82 25.8196 41.0952 25.5844 41.5068L27.3209 42.499ZM27.1441 42.6386L31.3201 41.5166L30.8012 39.5851L26.6252 40.7071L27.1441 42.6386ZM31.7678 41.258L35.3858 37.64L33.9716 36.2258L30.3536 39.8438L31.7678 41.258ZM34.6787 35.9329H29.5607V37.9329H34.6787V35.9329ZM29.0609 36.0667L25.3169 38.2267L26.3164 39.9591L30.0604 37.7991L29.0609 36.0667ZM25.331 38.2187C25.346 38.2104 25.3614 38.204 25.379 38.1992C25.3963 38.1944 25.4241 38.1889 25.4627 38.1889V40.1889C25.7725 40.1889 26.0641 40.0994 26.3023 39.967L25.331 38.2187ZM25.4627 38.1889C25.4591 38.1889 25.4657 38.1887 25.4799 38.1903C25.494 38.192 25.5215 38.1961 25.558 38.2071L24.9833 40.1227C25.1713 40.1791 25.3438 40.1889 25.4627 40.1889V38.1889ZM25.5132 38.1948C25.537 38.2007 25.5529 38.2066 25.5571 38.2082C25.559 38.2089 25.5585 38.2087 25.5543 38.207C25.5522 38.2061 25.5496 38.205 25.5459 38.2034C25.5421 38.2018 25.5381 38.2001 25.5326 38.1977L24.7448 40.036C24.7787 40.0506 24.891 40.1008 25.0281 40.135L25.5132 38.1948Z" fill="#3C4196" mask="url(#path-2-outside-1_867_16224)"/>
<mask id="path-4-inside-2_867_16224" fill="white">
<path d="M32.71 31.5451L35.692 34.5271V29.4031L35.386 28.8691"/>
</mask>
<path d="M35.692 34.5271L34.9849 35.2342L36.692 36.9414V34.5271H35.692ZM35.692 29.4031H36.692V29.1369L36.5596 28.9059L35.692 29.4031ZM32.0029 32.2522L34.9849 35.2342L36.3991 33.82L33.4171 30.838L32.0029 32.2522ZM36.692 34.5271V29.4031H34.692V34.5271H36.692ZM36.5596 28.9059L36.2536 28.372L34.5183 29.3663L34.8243 29.9003L36.5596 28.9059Z" fill="#3C4196" mask="url(#path-4-inside-2_867_16224)"/>
<mask id="path-6-inside-3_867_16224" fill="white">
<path d="M29.0264 35.2287L29.5664 35.5347H34.6844L31.7024 32.5527"/>
</mask>
<path d="M29.5664 35.5347L29.0734 36.4048L29.3027 36.5347H29.5664V35.5347ZM34.6844 35.5347V36.5347H37.0986L35.3915 34.8276L34.6844 35.5347ZM28.5334 36.0988L29.0734 36.4048L30.0594 34.6647L29.5194 34.3587L28.5334 36.0988ZM29.5664 36.5347H34.6844V34.5347H29.5664V36.5347ZM35.3915 34.8276L32.4095 31.8456L30.9953 33.2598L33.9773 36.2418L35.3915 34.8276Z" fill="#3C4196" mask="url(#path-6-inside-3_867_16224)"/>
<path d="M24.9226 32.2174C24.2326 31.8694 23.6266 31.3894 23.1346 30.8014C22.3306 29.8414 21.8506 28.5994 21.8506 27.2494C21.8506 24.1834 24.3406 21.6934 27.4066 21.6934C28.7566 21.6934 29.9926 22.1734 30.9526 22.9714C31.5286 23.4454 32.0026 24.0394 32.3506 24.7054" stroke="#3C4196" stroke-miterlimit="10" stroke-linecap="round"/>
<path d="M29.1644 12.927L28.5404 18.009C28.5044 18.303 28.2404 18.507 27.9464 18.489C27.7664 18.477 27.5864 18.471 27.4064 18.471C27.2264 18.471 27.0464 18.471 26.8664 18.489C26.5724 18.507 26.3084 18.303 26.2724 18.009L25.6484 12.921C25.6124 12.615 25.8284 12.327 26.1404 12.303C26.5544 12.267 26.9804 12.249 27.4004 12.249C27.8204 12.249 28.2524 12.267 28.6664 12.303C28.9724 12.333 29.1944 12.615 29.1584 12.921L29.1644 12.927Z" stroke="#3C4196" stroke-miterlimit="10" stroke-linecap="round"/>
<path d="M21.7662 13.9654L23.7702 18.6754C23.8842 18.9514 23.7582 19.2574 23.4942 19.3894C23.3322 19.4674 23.1762 19.5574 23.0202 19.6474C22.8642 19.7374 22.7142 19.8334 22.5642 19.9294C22.3182 20.0914 21.9882 20.0494 21.8082 19.8154L18.7242 15.7234C18.5382 15.4774 18.5862 15.1174 18.8382 14.9374C19.1802 14.6974 19.5342 14.4694 19.9062 14.2594C20.2782 14.0494 20.6502 13.8514 21.0342 13.6714C21.3162 13.5394 21.6522 13.6774 21.7722 13.9654H21.7662Z" stroke="#3C4196" stroke-miterlimit="10" stroke-linecap="round"/>
<path d="M15.8807 18.5669L19.9727 21.6449C20.2127 21.8249 20.2547 22.1549 20.0927 22.4009C19.9907 22.5509 19.9007 22.7069 19.8107 22.8629C19.7207 23.0189 19.6367 23.1749 19.5587 23.3369C19.4267 23.6009 19.1207 23.7269 18.8507 23.6129L14.1347 21.6089C13.8467 21.4889 13.7147 21.1529 13.8407 20.8709C14.0147 20.4929 14.2127 20.1149 14.4227 19.7489C14.6327 19.3829 14.8667 19.0229 15.1067 18.6809C15.2867 18.4289 15.6407 18.3809 15.8927 18.5669H15.8807Z" stroke="#3C4196" stroke-miterlimit="10" stroke-linecap="round"/>
<path d="M13.0842 25.4912L18.1663 26.1152C18.4603 26.1512 18.6643 26.4152 18.6463 26.7092C18.6343 26.8892 18.6283 27.0692 18.6283 27.2492C18.6283 27.4292 18.6283 27.6092 18.6463 27.7892C18.6643 28.0832 18.4603 28.3472 18.1663 28.3832L13.0783 29.0072C12.7723 29.0432 12.4843 28.8272 12.4603 28.5152C12.4243 28.1012 12.4062 27.6752 12.4062 27.2552C12.4062 26.8352 12.4243 26.4032 12.4603 25.9892C12.4903 25.6832 12.7723 25.4612 13.0783 25.4972L13.0842 25.4912Z" stroke="#3C4196" stroke-miterlimit="10" stroke-linecap="round"/>
<path d="M14.1226 32.8889L18.8326 30.8849C19.1086 30.7709 19.4146 30.8969 19.5466 31.1609C19.6246 31.3229 19.7146 31.4789 19.8046 31.6349C19.8946 31.7909 19.9906 31.9409 20.0866 32.0909C20.2486 32.3369 20.2066 32.6669 19.9726 32.8469L15.8806 35.9309C15.6346 36.1169 15.2746 36.0689 15.0946 35.8169C14.8546 35.4749 14.6266 35.1209 14.4166 34.7489C14.2066 34.3769 14.0086 34.0049 13.8286 33.6209C13.6966 33.3389 13.8346 33.0029 14.1226 32.8829V32.8889Z" stroke="#3C4196" stroke-miterlimit="10" stroke-linecap="round"/>
<path d="M34.7211 22.407C34.7211 22.407 34.7031 22.377 34.6971 22.365C34.5651 22.125 34.6191 21.819 34.8411 21.651L37.1391 19.917" stroke="#3C4196" stroke-miterlimit="10" stroke-linecap="round"/>
<path d="M20.0625 36.9989L21.8025 34.6829C21.9705 34.4609 22.2705 34.4069 22.5165 34.5389" stroke="#3C4196" stroke-miterlimit="10" stroke-linecap="round"/>
<path d="M33.0464 13.9648C33.1664 13.6768 33.5024 13.5448 33.7844 13.6708C34.1624 13.8448 34.5404 14.0428 34.9124 14.2588C35.2844 14.4748 35.6384 14.6968 35.9804 14.9368C36.2324 15.1168 36.2804 15.4708 36.0944 15.7228L33.0104 19.8208C32.8304 20.0548 32.5064 20.1028 32.2604 19.9348C32.1104 19.8388 31.9604 19.7428 31.8044 19.6528C31.6484 19.5628 31.4864 19.4788 31.3304 19.3948C31.0664 19.2628 30.9344 18.9568 31.0544 18.6808L33.0584 13.9648H33.0464Z" stroke="#3C4196" stroke-miterlimit="10" stroke-linecap="round"/>
</svg>
