<svg width="61" height="61" viewBox="0 0 61 61" fill="none" xmlns="http://www.w3.org/2000/svg">
<path d="M34.9305 30.456H34.9245C38.0205 28.848 40.1505 25.614 40.1505 21.906V17.376H20.8965V21.906C20.8965 25.68 23.1045 28.956 26.2845 30.528C26.2245 30.558 26.1585 30.588 26.0985 30.624C23.0985 32.262 21.0525 35.442 21.0525 39.084V43.614H40.3065V39.084C40.3065 35.316 38.1105 32.034 34.9305 30.456V30.456Z" stroke="#3C4196" stroke-miterlimit="10" stroke-linecap="round"/>
<path d="M40.4202 12.498H20.3922C19.0435 12.498 17.9502 13.59 17.9502 14.937C17.9502 16.2841 19.0435 17.376 20.3922 17.376H40.4202C41.7689 17.376 42.8622 16.2841 42.8622 14.937C42.8622 13.59 41.7689 12.498 40.4202 12.498Z" stroke="#3C4196" stroke-miterlimit="10" stroke-linecap="round"/>
<path d="M40.4202 43.6201H20.3922C19.0435 43.6201 17.9502 44.7121 17.9502 46.0591C17.9502 47.4061 19.0435 48.4981 20.3922 48.4981H40.4202C41.7689 48.4981 42.8622 47.4061 42.8622 46.0591C42.8622 44.7121 41.7689 43.6201 40.4202 43.6201Z" stroke="#3C4196" stroke-miterlimit="10" stroke-linecap="round"/>
<path d="M36.9578 23.7959C36.0458 26.4719 33.5018 28.4159 30.5258 28.4159C28.6598 28.4159 26.9558 27.6539 25.7258 26.4179C24.9938 25.6859 24.4298 24.7919 24.0938 23.7959H36.9578V23.7959Z" stroke="#3C4196" stroke-miterlimit="10" stroke-linecap="round"/>
<path d="M37.3185 39.3779V40.7879H23.7285V39.3779C23.7285 35.6399 26.7885 32.5859 30.5205 32.5859C32.3865 32.5859 34.0905 33.3479 35.3205 34.5839C36.5505 35.8139 37.3125 37.5119 37.3125 39.3779H37.3185Z" stroke="#3C4196" stroke-miterlimit="10" stroke-linecap="round"/>
</svg>
