<?xml version="1.0" encoding="utf-8"?>
<!-- Generator: Adobe Illustrator 26.2.1, SVG Export Plug-In . SVG Version: 6.00 Build 0)  -->
<svg version="1.1" id="Layer_1" xmlns="http://www.w3.org/2000/svg" xmlns:xlink="http://www.w3.org/1999/xlink" x="0px" y="0px"
	 viewBox="0 0 60 60" style="enable-background:new 0 0 60 60;" xml:space="preserve">
<style type="text/css">
	.st0{fill:none;stroke:#486FD7;stroke-width:3.05;stroke-linecap:round;stroke-linejoin:round;}
	.st1{fill:none;stroke:#486FD7;stroke-width:3.05;stroke-miterlimit:10;}
</style>
<path class="st1" d="M16.3,36.7h-2.3c-3.1,0-5.7,2.5-5.7,5.7v12.3c0,0.8,0.7,1.5,1.5,1.5c0,0,0,0,0,0h6.7c-0.2-0.5-0.3-1-0.2-1.5
	V36.7z"/>
<path class="st1" d="M54.9,19.2l-11-14.8c-0.3-0.4-0.7-0.6-1.2-0.6c-0.5,0-0.9,0.2-1.2,0.6l-11,14.8c-0.4,0.4-0.4,1.1-0.1,1.6
	c0.3,0.5,0.8,0.9,1.4,0.9h3.9v33.1c0,0.8,0.7,1.5,1.5,1.5c0,0,0,0,0,0h11c0.8,0,1.5-0.7,1.5-1.5c0,0,0,0,0,0V21.6h4
	c0.9,0,1.5-0.8,1.5-1.6C55.2,19.7,55.1,19.4,54.9,19.2L54.9,19.2z"/>
<path class="st1" d="M29.9,28.5h-2.2c-3.1,0-5.7,2.5-5.7,5.7v20.6c0,0.8,0.7,1.5,1.5,1.5c0,0,0,0,0,0h6.7c-0.2-0.5-0.3-1-0.2-1.5
	V28.5z"/>
</svg>
