<?xml version="1.0" standalone="no"?>
<!DOCTYPE svg PUBLIC "-//W3C//DTD SVG 20010904//EN"
 "http://www.w3.org/TR/2001/REC-SVG-20010904/DTD/svg10.dtd">
<svg version="1.0" xmlns="http://www.w3.org/2000/svg"
 width="1008.000000pt" height="163.000000pt" viewBox="0 0 1008.000000 163.000000"
 preserveAspectRatio="xMidYMid meet">

<g transform="translate(0.000000,163.000000) scale(0.100000,-0.100000)"
fill="#000000" stroke="none">
<path d="M403 1184 c-6 -17 -1 -42 22 -104 14 -38 16 -82 13 -310 -3 -230 -5
-269 -20 -297 -20 -35 -24 -83 -8 -83 6 0 39 9 73 21 57 19 75 20 229 14 l168
-7 30 32 c34 36 39 76 12 84 -25 8 -65 52 -93 101 -34 61 -38 175 -9 243 50
117 181 181 283 139 164 -69 210 -311 84 -441 -23 -24 -49 -45 -56 -48 -23 -7
-2 -67 31 -91 31 -23 42 -24 223 -13 119 8 135 7 190 -13 32 -11 65 -21 72
-21 18 0 16 28 -7 95 -18 52 -20 84 -20 303 0 224 2 251 22 313 31 97 25 104
-64 73 -78 -27 -111 -28 -328 -4 -110 11 -353 11 -455 0 -202 -24 -235 -23
-313 4 -62 21 -74 23 -79 10z"/>
<path d="M2463 1107 c-59 -9 -87 -27 -44 -27 45 0 51 -29 51 -267 l0 -222 -30
-23 c-16 -12 -30 -25 -30 -30 0 -4 47 -8 105 -8 105 0 126 8 83 31 -13 7 -26
17 -30 23 -4 6 -8 129 -8 274 0 243 -1 262 -17 261 -10 -1 -46 -6 -80 -12z"/>
<path d="M6198 1106 c-70 -12 -100 -26 -55 -26 50 0 67 -30 67 -118 0 -43 -3
-81 -6 -85 -4 -3 -16 1 -29 9 -43 28 -83 34 -133 19 -148 -44 -179 -252 -51
-344 35 -26 51 -31 98 -31 38 0 66 6 89 20 41 25 52 25 52 0 0 -18 7 -20 59
-20 69 0 82 10 40 29 l-29 13 0 274 c0 255 -1 274 -17 273 -10 -1 -48 -6 -85
-13z m-31 -262 c45 -50 54 -164 18 -233 -10 -21 -27 -34 -55 -42 -36 -11 -44
-10 -68 8 -15 11 -33 37 -40 59 -18 51 -11 164 12 199 33 50 93 55 133 9z"/>
<path d="M7158 1109 c-23 -13 -23 -51 0 -72 24 -22 45 -21 65 1 43 48 -9 104
-65 71z"/>
<path d="M2088 1074 c-81 -25 -123 -102 -98 -178 16 -50 77 -98 172 -137 83
-35 118 -65 118 -105 0 -34 -40 -74 -84 -84 -93 -21 -180 29 -201 113 -13 49
-28 30 -21 -25 3 -29 6 -71 7 -93 0 -36 1 -38 11 -17 13 27 19 27 68 2 79 -40
212 -19 269 44 19 20 26 40 29 85 4 56 2 60 -31 98 -20 22 -55 48 -78 59 -23
10 -74 35 -113 54 -70 34 -71 36 -74 76 -3 37 1 45 27 63 64 46 153 17 196
-63 11 -20 23 -36 27 -36 10 0 11 101 2 125 -5 12 -9 13 -14 4 -6 -9 -17 -9
-47 3 -61 25 -114 28 -165 12z"/>
<path d="M3980 1070 c0 -5 6 -10 14 -10 8 0 22 -10 30 -22 13 -19 16 -58 16
-233 0 -115 -4 -215 -8 -222 -4 -6 -20 -16 -35 -22 -15 -6 -27 -15 -27 -21 0
-13 266 -14 274 -1 3 5 -14 14 -39 20 -25 6 -49 19 -55 30 -5 11 -10 60 -10
110 l0 91 28 0 c61 0 103 -20 118 -56 25 -59 34 -40 34 71 0 111 -9 130 -34
70 -17 -39 -47 -55 -107 -55 l-40 0 3 113 3 112 80 3 c71 2 85 0 115 -20 20
-14 38 -36 44 -56 15 -53 27 -36 24 36 l-3 67 -212 3 c-140 1 -213 -1 -213 -8z"/>
<path d="M6886 965 c-9 -14 -34 -34 -56 -45 -45 -23 -52 -40 -16 -40 13 0 27
-7 30 -16 3 -9 6 -77 6 -153 0 -131 1 -139 23 -159 28 -27 101 -30 135 -6 32
22 27 34 -11 27 -51 -8 -60 11 -65 142 -6 153 -3 165 49 165 53 0 48 23 -7 30
-37 5 -39 7 -42 43 -4 43 -22 49 -46 12z"/>
<path d="M2807 906 c-97 -26 -147 -91 -147 -191 0 -70 19 -108 75 -151 69 -52
203 -41 255 21 21 25 5 28 -36 6 -50 -27 -113 -27 -147 -1 -28 22 -47 74 -47
127 l0 32 128 3 127 3 -3 35 c-6 54 -44 97 -104 115 -28 8 -52 15 -52 14 -1 0
-23 -6 -49 -13z m94 -47 c13 -13 19 -30 17 -47 -3 -26 -5 -27 -75 -30 -69 -3
-73 -2 -73 18 0 30 53 80 84 80 14 0 35 -9 47 -21z"/>
<path d="M3215 903 c-59 -18 -69 -25 -107 -77 -39 -54 -40 -148 -3 -212 46
-78 167 -109 254 -65 40 21 68 48 58 57 -6 7 -14 4 -57 -21 -14 -8 -44 -15
-68 -15 -54 0 -95 36 -112 99 -20 76 -21 76 124 79 l129 3 -6 40 c-7 52 -31
88 -70 104 -55 22 -90 24 -142 8z m99 -39 c23 -23 31 -64 15 -75 -8 -5 -42 -9
-76 -9 -56 0 -63 2 -63 19 0 11 12 33 26 50 29 35 72 41 98 15z"/>
<path d="M3692 905 c-24 -7 -52 -21 -62 -30 -17 -16 -19 -15 -22 7 -3 24 -20
26 -105 12 -35 -5 -46 -24 -14 -24 41 0 46 -24 49 -229 4 -212 -2 -245 -43
-261 -51 -19 -14 -30 101 -30 88 0 115 3 112 13 -3 6 -13 14 -24 16 -43 8 -54
30 -54 113 l0 80 34 -21 c45 -28 119 -28 165 0 48 29 68 56 87 116 15 44 15
58 5 96 -20 70 -47 106 -94 126 -63 28 -88 30 -135 16z m102 -56 c24 -28 26
-38 26 -120 0 -127 -19 -159 -94 -159 -33 0 -62 23 -85 67 -16 32 -14 149 4
183 34 67 106 81 149 29z"/>
<path d="M4578 905 c-94 -25 -148 -91 -148 -180 0 -153 157 -242 299 -170 57
29 85 64 101 127 35 138 -105 263 -252 223z m100 -41 c36 -25 52 -68 52 -139
0 -82 -25 -138 -70 -153 -85 -30 -146 67 -126 202 13 85 86 131 144 90z"/>
<path d="M5631 908 c-19 -5 -46 -18 -59 -29 -32 -25 -40 -24 -44 4 -3 23 -21
26 -95 12 -35 -6 -46 -25 -15 -25 31 0 42 -44 42 -163 0 -119 -2 -127 -37
-146 -44 -23 -23 -31 82 -31 104 0 132 10 81 29 -13 5 -26 17 -30 26 -10 28
-6 188 7 224 17 48 56 75 96 66 47 -10 63 -43 69 -144 7 -122 -1 -156 -38
-171 -50 -21 -24 -30 86 -30 105 0 125 7 79 28 -29 14 -33 28 -38 158 -5 131
-24 166 -100 189 -28 8 -51 15 -51 14 -1 0 -16 -5 -35 -11z"/>
<path d="M6525 914 c-59 -15 -86 -28 -96 -45 -12 -24 -4 -55 18 -63 20 -8 63
19 63 39 0 8 11 22 24 30 28 19 69 7 85 -24 17 -32 14 -81 -6 -88 -10 -3 -55
-23 -100 -45 -97 -46 -123 -79 -102 -129 16 -40 46 -59 93 -59 41 0 100 30
110 55 8 21 26 19 26 -3 0 -42 65 -66 111 -42 25 14 24 28 -3 32 -22 3 -23 8
-28 133 -7 174 -20 196 -131 208 -24 3 -53 3 -64 1z m105 -220 c0 -61 -33
-103 -80 -104 -81 -1 -58 85 35 133 38 19 45 14 45 -29z"/>
<path d="M7485 905 c-27 -8 -53 -14 -56 -15 -3 0 -22 -16 -42 -36 -90 -90 -60
-252 57 -305 95 -43 198 -16 263 69 28 37 33 52 33 98 0 34 -7 69 -19 93 -21
41 -79 85 -126 95 -16 4 -37 9 -45 11 -8 2 -37 -3 -65 -10z m89 -31 c23 -9 53
-63 61 -111 17 -107 -27 -195 -98 -195 -50 0 -74 23 -93 89 -38 130 36 253
130 217z"/>
<path d="M8020 908 c-19 -5 -46 -18 -61 -29 -34 -24 -37 -24 -41 4 -3 19 -8
22 -44 19 -23 -2 -54 -7 -70 -11 l-29 -9 31 -11 c37 -14 44 -40 44 -171 0
-105 -5 -125 -36 -139 -49 -22 -25 -31 81 -31 63 0 105 4 105 10 0 6 -4 10
-10 10 -5 0 -19 9 -30 20 -17 17 -20 33 -19 113 0 50 5 107 12 126 17 48 56
75 96 66 48 -10 64 -44 69 -146 6 -122 -1 -154 -38 -169 -17 -7 -30 -16 -30
-21 0 -5 50 -9 110 -9 112 0 133 8 83 32 -28 13 -28 14 -34 134 -7 152 -23
186 -102 209 -28 8 -51 15 -51 14 -1 0 -17 -5 -36 -11z"/>
<path d="M8639 905 c-180 -48 -203 -271 -37 -356 69 -35 179 -20 236 34 57 53
77 139 48 208 -38 89 -149 141 -247 114z m113 -52 c33 -36 40 -61 40 -138 -1
-97 -33 -147 -97 -147 -43 0 -63 15 -86 67 -64 141 51 316 143 218z"/>
<path d="M9185 909 c-17 -5 -44 -22 -60 -39 -37 -39 -45 -38 -45 5 0 19 -3 35
-7 35 -30 0 -133 -24 -133 -31 0 -5 6 -9 14 -9 30 0 43 -29 50 -110 4 -44 4
-105 1 -134 -6 -48 -11 -56 -36 -66 -16 -7 -26 -16 -23 -21 6 -11 224 -12 224
-1 0 4 -15 14 -33 22 -31 15 -32 17 -35 84 -4 84 13 168 38 191 17 15 21 15
49 1 40 -21 48 -20 66 8 28 43 -12 80 -70 65z"/>
<path d="M9415 905 c-102 -36 -125 -138 -46 -209 l20 -18 -32 -22 c-40 -27
-47 -66 -16 -95 24 -22 41 -27 138 -37 72 -7 111 -35 111 -77 0 -43 -34 -62
-110 -62 -53 0 -73 4 -89 19 -26 24 -27 48 -1 71 25 22 12 35 -36 35 -39 0
-64 -27 -64 -68 0 -24 8 -37 36 -58 32 -25 47 -28 124 -32 140 -7 210 29 210
107 0 99 -29 118 -222 146 -69 10 -44 46 41 59 92 14 135 63 129 149 -3 51 -3
52 25 50 15 -2 39 -4 55 -5 37 -4 38 32 0 49 -22 11 -33 10 -70 -5 -36 -16
-48 -17 -73 -7 -52 21 -89 24 -130 10z m89 -47 c23 -33 21 -109 -5 -142 -26
-33 -42 -33 -68 0 -14 18 -21 41 -21 73 0 55 22 91 55 91 13 0 31 -10 39 -22z"/>
<path d="M4870 896 c0 -8 10 -16 23 -18 21 -3 22 -8 28 -118 4 -70 12 -130 22
-152 37 -88 157 -106 234 -35 l23 20 6 -31 c6 -32 7 -32 70 -32 34 0 66 5 69
10 3 6 -1 10 -9 10 -9 0 -25 9 -36 20 -18 18 -20 33 -20 180 l0 160 -69 0
c-77 0 -96 -12 -54 -32 28 -13 28 -15 31 -115 2 -86 0 -109 -17 -141 -22 -42
-37 -52 -80 -52 -56 0 -65 26 -71 189 l-5 146 -72 3 c-59 2 -73 0 -73 -12z"/>
<path d="M7138 898 c-55 -10 -80 -28 -39 -28 36 0 42 -22 39 -161 l-3 -134
-28 -13 c-15 -7 -25 -17 -22 -23 7 -10 198 -13 208 -2 4 3 -6 14 -23 24 l-30
18 -2 163 c-3 186 4 174 -100 156z"/>
<path d="M8340 604 c-23 -27 -1 -68 38 -72 26 -3 34 1 43 21 16 35 -3 67 -40
67 -16 0 -34 -7 -41 -16z"/>
</g>
</svg>
