		<svg width="10" height="15" viewBox="0 0 10 15" fill="none" xmlns="http://www.w3.org/2000/svg">
			<path
				d="M0.417482 7.42509C0.416982 7.01909 0.591481 6.63259 0.895981 6.36459L7.73598 0.347092C8.20748 -0.048408 8.90848 0.00459197 9.31498 0.466592C9.72148 0.928592 9.68448 1.63059 9.23198 2.04759L3.25098 7.30959C3.21798 7.33859 3.19848 7.38059 3.19848 7.42509C3.19848 7.46959 3.21748 7.51109 3.25098 7.54059L9.23198 12.8026C9.54698 13.0666 9.69398 13.4806 9.61648 13.8846C9.53898 14.2886 9.24848 14.6181 8.85848 14.7466C8.46798 14.8751 8.03848 14.7821 7.73648 14.5036L0.898981 8.48809C0.593481 8.21959 0.418482 7.83259 0.417982 7.42559L0.417482 7.42509Z"
				fill="white"
			/>
		</svg>
