<svg width="15" height="18" viewBox="0 0 15 18" fill="none" xmlns="http://www.w3.org/2000/svg">
<path d="M0.503578 15.5019L1.50511 4.21819C1.52657 3.96768 1.73761 3.77801 1.98442 3.77801H4.04471C4.07333 1.89559 5.6114 0.374634 7.5 0.374634C9.38861 0.374634 10.9267 1.89559 10.9553 3.77801H13.0156C13.266 3.77801 13.4734 3.96768 13.4949 4.21819L14.4964 15.5019C14.4964 15.5162 14.5 15.5306 14.5 15.5449C14.5 16.8296 13.3232 17.8746 11.8746 17.8746H3.12545C1.6768 17.8746 0.500001 16.8296 0.500001 15.5449C0.500001 15.5306 0.500001 15.5162 0.503578 15.5019ZM7.5 1.34089C6.14435 1.34089 5.03909 2.42883 5.01048 3.77801H9.98953C9.96091 2.42883 8.85565 1.34089 7.5 1.34089ZM3.12545 16.9084H11.8746C12.7831 16.9084 13.5199 16.3071 13.5342 15.5664L12.5756 4.74784H10.9589V6.21512C10.9589 6.48353 10.7443 6.69825 10.476 6.69825C10.2077 6.69825 9.9931 6.48353 9.9931 6.21512V4.74784H5.01048V6.21512C5.01048 6.48353 4.79586 6.69825 4.52759 6.69825C4.25933 6.69825 4.04471 6.48353 4.04471 6.21512V4.74784H2.42795L1.46576 15.5664C1.48007 16.3071 2.22049 16.9084 3.12545 16.9084Z" fill="white"/>
</svg>
