<svg width="61" height="61" viewBox="0 0 61 61" fill="none" xmlns="http://www.w3.org/2000/svg">
<path d="M25.6992 29.4326C26.7235 29.4326 27.7378 29.6344 28.6842 30.0264C29.6305 30.4183 30.4904 30.9929 31.2147 31.7172C31.9389 32.4415 32.5135 33.3013 32.9055 34.2477C33.2975 35.194 33.4992 36.2083 33.4992 37.2326V41.0726" stroke="#3C4196" stroke-miterlimit="10" stroke-linecap="round"/>
<path d="M29.7014 48.5025C29.4122 48.4917 29.122 48.4739 28.8308 48.4491C24.7808 48.0959 20.9696 46.3822 18.0178 43.5868C15.066 40.7915 13.1473 37.0793 12.5743 33.0545C12.0012 29.0297 12.8075 24.9295 14.8618 21.4214C16.9161 17.9132 20.0975 15.2039 23.888 13.7343C24.1136 13.644 24.3613 13.6244 24.5983 13.678C24.8353 13.7315 25.0505 13.8558 25.2154 14.0343C25.3802 14.2128 25.487 14.4372 25.5216 14.6777C25.5561 14.9182 25.5169 15.1636 25.409 15.3813C23.9409 18.2969 23.4636 21.6116 24.0492 24.8229C24.6349 28.0343 26.2516 30.9671 28.6544 33.1767C29.0162 33.4911 29.2993 33.8858 29.4811 34.3292C29.6629 34.7726 29.7384 35.2525 29.7014 35.7303V51.9903C29.7014 52.6268 29.9542 53.2373 30.4043 53.6874C30.8544 54.1375 31.4649 54.3903 32.1014 54.3903H34.8788C35.6744 54.3903 36.4375 54.0743 37.0001 53.5116C37.5627 52.949 37.8788 52.186 37.8788 51.3903V43.7163" stroke="#3C4196" stroke-miterlimit="10" stroke-linecap="round"/>
<path d="M41.9258 36.8085C43.1776 36.5438 44.39 36.1187 45.533 35.5437C45.7508 35.4363 45.9961 35.3975 46.2364 35.4324C46.4768 35.4674 46.7009 35.5744 46.8791 35.7394C47.0573 35.9044 47.1812 36.1196 47.2345 36.3566C47.2878 36.5935 47.268 36.8411 47.1776 37.0665C46.3046 39.2998 44.9937 41.336 43.322 43.0551" stroke="#3C4196" stroke-miterlimit="10" stroke-linecap="round"/>
<path d="M32.7412 33.875H36.1204C38.03 33.875 39.8613 34.6336 41.2116 35.9838C42.5618 37.3341 43.3204 39.1654 43.3204 41.075V47.1284C43.3204 48.0832 42.9411 48.9988 42.266 49.674C41.5909 50.3491 40.6752 50.7284 39.7204 50.7284H37.879" stroke="#3C4196" stroke-miterlimit="10" stroke-linecap="round"/>
<path d="M35.0605 23.332H39.8605L35.0605 28.132H39.8605" stroke="#3C4196" stroke-linecap="round" stroke-linejoin="round"/>
<path d="M43.6016 17.915H48.4016L43.6016 22.715H48.4016" stroke="#3C4196" stroke-linecap="round" stroke-linejoin="round"/>
<path d="M30.1191 12.498H34.9191L30.1191 17.298H34.9191" stroke="#3C4196" stroke-linecap="round" stroke-linejoin="round"/>
</svg>
