<svg width="61" height="60" viewBox="0 0 61 60" fill="none" xmlns="http://www.w3.org/2000/svg">
<path d="M28.4503 12C28.4503 13.716 29.0923 16.992 23.9983 17.634C18.9043 18.276 17.2903 20.424 17.7763 24.558C18.2083 28.236 18.7723 32.706 18.5803 35.448C18.2023 40.812 16.8643 44.406 16.8643 44.406" stroke="#3C4196" stroke-miterlimit="10" stroke-linecap="round"/>
<path d="M34.1864 12C34.1864 13.5 33.2744 16.776 37.0844 18.816C40.8944 20.856 43.4024 21.738 42.1304 27.882C41.1644 32.55 41.1644 34.428 42.1844 38.4C43.2044 42.372 43.9544 44.406 43.9544 44.406" stroke="#3C4196" stroke-miterlimit="10" stroke-linecap="round"/>
<path d="M31.3421 12C31.3421 12 32.0381 15.81 30.2141 23.43C28.3901 31.05 29.1941 39.042 31.4741 48" stroke="#3C4196" stroke-miterlimit="10" stroke-linecap="round" stroke-dasharray="4 4"/>
<path d="M21.1005 24.0176C21.1005 24.0176 21.0465 26.9156 23.2485 32.3096C25.0965 36.8336 20.1885 38.9336 21.1005 47.9996" stroke="#3C4196" stroke-miterlimit="10" stroke-linecap="round"/>
<path d="M38.7465 25.8418C38.7465 25.8418 38.8005 28.0438 37.2465 31.9018C35.3085 36.7078 41.5365 38.0158 40.8945 47.9998" stroke="#3C4196" stroke-miterlimit="10" stroke-linecap="round"/>
</svg>
