<svg width="36" height="32" viewBox="0 0 36 32" fill="none" xmlns="http://www.w3.org/2000/svg">
    <path d="M21.0952 23.9775H7.09521C6.83 23.9775 6.57564 23.8722 6.38811 23.6846C6.20057 23.4971 6.09521 23.2428 6.09521 22.9775C6.09521 22.7123 6.20057 22.458 6.38811 22.2704C6.57564 22.0829 6.83 21.9775 7.09521 21.9775H17.5352C18.2039 21.9776 18.8534 21.7542 19.3806 21.343C19.9078 20.9317 20.2825 20.3561 20.4452 19.7075L22.0952 13.2175C22.1327 13.0699 22.1359 12.9158 22.1047 12.7667C22.0735 12.6177 22.0087 12.4777 21.9152 12.3575C21.818 12.2343 21.6931 12.1356 21.5506 12.0696C21.4081 12.0036 21.2521 11.9721 21.0952 11.9775H6.85522C6.6489 11.394 6.26714 10.8885 5.76228 10.5305C5.25742 10.1724 4.65416 9.97928 4.03521 9.97754H3.09521C2.83 9.97754 2.57564 10.0829 2.38811 10.2704C2.20057 10.458 2.09521 10.7123 2.09521 10.9775C2.09521 11.2428 2.20057 11.4971 2.38811 11.6846C2.57564 11.8722 2.83 11.9775 3.09521 11.9775H4.03521C4.26365 11.9709 4.48747 12.0427 4.66942 12.181C4.85137 12.3192 4.98046 12.5157 5.03521 12.7375L5.09521 13.2175L6.82521 19.9775C6.02957 20.0133 5.28073 20.3638 4.74343 20.9517C4.20614 21.5396 3.92441 22.3169 3.96021 23.1125C3.99602 23.9082 4.34643 24.657 4.93435 25.1943C5.52228 25.7316 6.29957 26.0133 7.09521 25.9775H7.27521C7.11075 26.4307 7.0579 26.9168 7.12115 27.3946C7.18439 27.8725 7.36186 28.3281 7.63853 28.7229C7.91521 29.1176 8.28293 29.4399 8.71057 29.6624C9.1382 29.8849 9.61316 30.0011 10.0952 30.0011C10.5773 30.0011 11.0522 29.8849 11.4799 29.6624C11.9075 29.4399 12.2752 29.1176 12.5519 28.7229C12.8286 28.3281 13.006 27.8725 13.0693 27.3946C13.1325 26.9168 13.0797 26.4307 12.9152 25.9775H15.2752C15.1108 26.4307 15.0579 26.9168 15.1211 27.3946C15.1844 27.8725 15.3619 28.3281 15.6385 28.7229C15.9152 29.1176 16.2829 29.4399 16.7106 29.6624C17.1382 29.8849 17.6132 30.0011 18.0952 30.0011C18.5773 30.0011 19.0522 29.8849 19.4799 29.6624C19.9075 29.4399 20.2752 29.1176 20.5519 28.7229C20.8286 28.3281 21.006 27.8725 21.0693 27.3946C21.1325 26.9168 21.0797 26.4307 20.9152 25.9775H21.0952C21.3604 25.9775 21.6148 25.8722 21.8023 25.6846C21.9899 25.4971 22.0952 25.2428 22.0952 24.9775C22.0952 24.7123 21.9899 24.458 21.8023 24.2704C21.6148 24.0829 21.3604 23.9775 21.0952 23.9775ZM19.8152 13.9775L18.5052 19.2175C18.4505 19.4394 18.3214 19.6358 18.1394 19.7741C17.9575 19.9124 17.7336 19.9842 17.5052 19.9775H8.87521L7.37522 13.9775H19.8152ZM10.0952 27.9775C9.89743 27.9775 9.70409 27.9189 9.53964 27.809C9.3752 27.6991 9.24702 27.5429 9.17134 27.3602C9.09565 27.1775 9.07584 26.9764 9.11443 26.7824C9.15301 26.5885 9.24826 26.4103 9.38811 26.2704C9.52796 26.1306 9.70614 26.0353 9.90012 25.9968C10.0941 25.9582 10.2952 25.978 10.4779 26.0537C10.6606 26.1293 10.8168 26.2575 10.9267 26.422C11.0366 26.5864 11.0952 26.7798 11.0952 26.9775C11.0952 27.2428 10.9899 27.4971 10.8023 27.6846C10.6148 27.8722 10.3604 27.9775 10.0952 27.9775ZM18.0952 27.9775C17.8974 27.9775 17.7041 27.9189 17.5396 27.809C17.3752 27.6991 17.247 27.5429 17.1713 27.3602C17.0956 27.1775 17.0758 26.9764 17.1144 26.7824C17.153 26.5885 17.2483 26.4103 17.3881 26.2704C17.528 26.1306 17.7061 26.0353 17.9001 25.9968C18.0941 25.9582 18.2952 25.978 18.4779 26.0537C18.6606 26.1293 18.8168 26.2575 18.9267 26.422C19.0366 26.5864 19.0952 26.7798 19.0952 26.9775C19.0952 27.2428 18.9899 27.4971 18.8023 27.6846C18.6148 27.8722 18.3604 27.9775 18.0952 27.9775Z"
          fill="#2E2F3C"/>
    <g filter="url(#filter0_d_952_9382)">
        <circle cx="24" cy="12" r="6" fill="#FC5744"/>
    </g>
    <defs>
        <filter id="filter0_d_952_9382" x="12" y="0" width="24" height="24" filterUnits="userSpaceOnUse"
                color-interpolation-filters="sRGB">
            <feFlood flood-opacity="0" result="BackgroundImageFix"/>
            <feColorMatrix in="SourceAlpha" type="matrix" values="0 0 0 0 0 0 0 0 0 0 0 0 0 0 0 0 0 0 127 0"
                           result="hardAlpha"/>
            <feOffset/>
            <feGaussianBlur stdDeviation="3"/>
            <feColorMatrix type="matrix" values="0 0 0 0 0.929412 0 0 0 0 0.109804 0 0 0 0 0.141176 0 0 0 0.22 0"/>
            <feBlend mode="normal" in2="BackgroundImageFix" result="effect1_dropShadow_952_9382"/>
            <feBlend mode="normal" in="SourceGraphic" in2="effect1_dropShadow_952_9382" result="shape"/>
        </filter>
    </defs>
</svg>
