<svg xmlns="http://www.w3.org/2000/svg" version="1.0" width="31" height="31" viewBox="0 0 225.000000 225.000000" preserveAspectRatio="xMidYMid meet">

<g transform="translate(0.000000,225.000000) scale(0.100000,-0.100000)" fill="#00000" stroke="none">
<path fill="red" d="M975 2224 c-11 -2 -45 -9 -75 -15 -212 -43 -414 -155 -566 -311 -140 -145 -228 -302 -280 -500 -24 -91 -28 -122 -28 -263 -1 -122 3 -179 17 -240 58 -248 139 -388 335 -576 165 -159 304 -232 532 -281 126 -26 361 -22 490 10 319 78 600 311 736 608 105 230 130 521 64 754 -58 210 -142 355 -284 494 -156 153 -324 248 -536 303 -53 13 -363 27 -405 17z m-90 -634 c88 -88 161 -164 163 -169 2 -5 23 -25 46 -45 l43 -35 194 195 c107 108 202 200 213 206 15 8 34 -6 127 -99 60 -60 109 -114 109 -119 0 -6 -90 -101 -200 -212 -110 -111 -200 -205 -200 -210 0 -4 86 -92 191 -197 105 -104 195 -198 200 -208 9 -16 -6 -36 -97 -128 -59 -60 -114 -109 -121 -109 -7 0 -103 90 -213 200 -109 110 -201 200 -204 200 -3 0 -97 -90 -208 -200 -111 -110 -207 -200 -213 -200 -6 0 -60 49 -119 109 -91 93 -106 112 -97 128 5 10 96 103 200 208 105 104 191 195 191 200 0 6 -85 94 -189 197 -104 102 -194 196 -201 208 -11 20 -3 30 98 131 60 60 113 109 119 109 5 0 81 -72 168 -160z"/>
</g>
</svg>