<?xml version="1.0" encoding="utf-8"?>
<!-- Generator: Adobe Illustrator 26.2.1, SVG Export Plug-In . SVG Version: 6.00 Build 0)  -->
<svg version="1.1" id="Layer_1" xmlns="http://www.w3.org/2000/svg" xmlns:xlink="http://www.w3.org/1999/xlink" x="0px" y="0px"
	 viewBox="0 0 60 60" style="enable-background:new 0 0 60 60;" xml:space="preserve">
<style type="text/css">
	.st0{fill:none;stroke:#486FD7;stroke-width:3.05;stroke-linecap:round;stroke-linejoin:round;}
	.st1{fill:none;stroke:#486FD7;stroke-width:3.05;stroke-miterlimit:10;}
</style>
<g>
	<path id="path1173-0" class="st0" d="M30,30c-3.2,0-5.9-2.6-5.9-5.8c0-3.2,2.6-5.9,5.8-5.9c3.2,0,5.9,2.6,5.9,5.8c0,0,0,0,0,0"/>
	<path id="path5155-6" class="st0" d="M30,30c3.2,0,5.9,2.6,5.9,5.8c0,3.2-2.6,5.9-5.8,5.9c-3.2,0-5.9-2.6-5.9-5.8c0,0,0,0,0,0"/>
	<path id="path5157-5" class="st0" d="M30,14.4v3.9"/>
	<path id="path5159-7" class="st0" d="M30,41.7v3.9"/>
	<circle class="st0" cx="30" cy="30" r="23.8"/>
</g>
</svg>
