<?xml version="1.0" encoding="utf-8"?>
<!-- Generator: Adobe Illustrator 26.2.1, SVG Export Plug-In . SVG Version: 6.00 Build 0)  -->
<svg version="1.1" id="Layer_1" xmlns="http://www.w3.org/2000/svg" xmlns:xlink="http://www.w3.org/1999/xlink" x="0px" y="0px"
	 viewBox="0 0 100 100" style="enable-background:new 0 0 100 100;" xml:space="preserve">
<style type="text/css">
	.st0{fill:none;stroke:#3D4196;stroke-width:3.5;}
	.st1{fill:#3D4196;}
</style>
<g>
	<circle class="st0" cx="50" cy="50" r="46.8"/>
</g>
<path class="st1" d="M51,78.3c10,0,17.2-6.4,17.2-15c0-6.7-4.2-11.7-10.9-13.1V50c5.6-1.7,9.1-6.2,9.1-12.3c0-7.6-6-14-15.3-14
	c-8.9,0-16,5.7-16.2,14h4.7c0.2-5.9,5.3-9.7,11.5-9.7c6.4,0,10.6,4.1,10.6,9.9c0,6.2-5,10.2-11.8,10.2h-3.1v4.4h3.1
	c8.4,0,13.6,4.4,13.6,10.9C63.5,69.5,58.3,74,51,74c-6.8,0-12.1-3.8-12.3-9.7h-4.9C34,72.6,41.2,78.3,51,78.3"/>
</svg>
