<svg fill="#f03306" viewBox="0 0 24 24" xmlns="http://www.w3.org/2000/svg" class="menu-item-anchor__icon-before icon__xs--size_xl icon__sm--size_xl icon__md--size_xl icon__lg--size_xl icon__xl--size_xl icon--is-non-responsive themed themed--default icon icon--monochrome themed themed--default" aria-hidden="true" isNonResponsive="true"><defs data-v-74e26a24=""></defs><path data-v-74e26a24="" d="M20.049 12l1.126-2.007A1.262 1.262 0 0020.6 8.23l-2.088-.962-.269-2.282a1.265 1.265 0 00-1.502-1.09l-2.254.448-1.56-1.688a1.266 1.266 0 00-1.856 0L9.513 4.344l-2.254-.449a1.267 1.267 0 00-1.502 1.09l-.27 2.283-2.086.961a1.265 1.265 0 00-.574 1.766L3.951 12l-1.123 2.004A1.266 1.266 0 003.4 15.77l2.087.961.269 2.284a1.268 1.268 0 001.502 1.09l2.254-.449 1.56 1.69c.238.256.576.404.927.404a1.27 1.27 0 00.928-.407l1.558-1.687 2.255.448a1.262 1.262 0 001.502-1.09l.269-2.283 2.088-.962a1.27 1.27 0 00.672-.756c.109-.333.074-.7-.098-1.01L20.049 12zm-1.373.618l1.064 1.896-1.973.909c-.397.18-.677.563-.73 1l-.254 2.16-2.132-.424a1.26 1.26 0 00-1.175.38l-1.477 1.598-1.473-1.594a1.266 1.266 0 00-1.177-.384l-2.133.425-.254-2.16a1.27 1.27 0 00-.726-1l-1.975-.91 1.065-1.899a1.26 1.26 0 00-.001-1.233L4.26 9.485l1.972-.909c.398-.18.678-.564.729-1l.254-2.16 2.133.425c.43.085.879-.06 1.175-.381L12 3.862l1.476 1.598c.298.321.75.469 1.175.381l2.133-.425.255 2.162c.053.436.333.82.727.997l1.975.91-1.063 1.896a1.25 1.25 0 00-.001 1.237z"></path><path data-v-74e26a24="" d="M14.298 15.298a1 1 0 100-2 1 1 0 000 2zM9.701 10.702a1 1 0 100-2 1 1 0 000 2zM9.081 14.919a.75.75 0 001.06 0l4.95-4.95a.75.75 0 00-1.06-1.06l-4.95 4.949a.75.75 0 000 1.06z"></path></svg>