<?xml version="1.0" standalone="no"?>
<!DOCTYPE svg PUBLIC "-//W3C//DTD SVG 20010904//EN"
 "http://www.w3.org/TR/2001/REC-SVG-20010904/DTD/svg10.dtd">
<svg version="1.0" xmlns="http://www.w3.org/2000/svg"
 width="443.000000pt" height="120.000000pt" viewBox="0 0 443.000000 120.000000"
 preserveAspectRatio="xMidYMid meet">

<g transform="translate(0.000000,120.000000) scale(0.100000,-0.100000)"
fill="#000000" stroke="none">
<path d="M1050 1140 c-13 -9 -13 -12 3 -21 14 -9 17 -26 17 -119 0 -67 -4
-110 -10 -110 -5 0 -10 -4 -10 -10 0 -5 18 -10 40 -10 38 0 52 12 30 25 -15 9
-12 98 3 119 8 11 23 17 38 14 22 -3 24 -7 27 -70 2 -43 -1 -68 -8 -68 -5 0
-10 -4 -10 -10 0 -5 20 -10 45 -10 45 0 45 0 31 23 -9 13 -15 46 -15 80 0 32
-5 65 -12 73 -13 16 -75 19 -84 4 -15 -24 -25 -6 -25 45 0 50 -2 55 -22 55
-13 0 -30 -5 -38 -10z"/>
<path d="M919 1074 c-16 -18 -20 -28 -11 -31 8 -3 12 -26 12 -66 0 -78 7 -105
30 -112 26 -8 70 5 70 20 0 8 -8 11 -18 8 -30 -7 -43 20 -40 84 3 55 4 58 31
61 34 4 36 22 2 22 -18 0 -25 5 -25 20 0 28 -22 25 -51 -6z"/>
<path d="M1343 1058 c-42 -11 -63 -43 -63 -96 0 -32 6 -49 25 -67 33 -34 95
-37 128 -8 27 25 20 35 -13 18 -39 -20 -53 -19 -78 8 -41 43 -30 57 42 57 36
0 67 4 70 9 5 7 -11 71 -18 71 0 0 -15 4 -31 8 -17 5 -44 5 -62 0z m55 -24
c37 -26 28 -44 -22 -44 -53 0 -64 12 -36 40 24 24 29 25 58 4z"/>
<path d="M210 1001 c-130 -40 -192 -161 -144 -281 19 -48 58 -77 194 -145 123
-61 149 -81 166 -121 39 -93 -86 -184 -192 -139 -50 21 -76 45 -116 112 -27
45 -37 53 -58 51 -21 -2 -26 -9 -28 -38 -6 -58 16 -137 44 -159 40 -31 164
-55 251 -47 75 6 151 32 186 64 48 43 74 138 57 204 -21 78 -49 103 -205 177
-81 40 -150 79 -159 92 -24 35 -21 101 7 126 34 31 62 43 102 43 51 0 96 -23
145 -76 53 -56 90 -61 90 -11 0 45 -27 121 -51 143 -15 14 -24 15 -43 6 -15
-7 -37 -7 -62 -1 -46 10 -149 10 -184 0z"/>
<path d="M3415 998 c-73 -40 -50 -118 35 -118 81 0 111 83 43 119 -27 14 -52
14 -78 -1z"/>
<path d="M677 815 c-86 -73 -98 -102 -44 -107 l32 -3 5 -203 5 -204 31 -27
c40 -36 97 -45 159 -27 53 17 85 41 85 66 0 22 -19 30 -45 19 -34 -13 -83 -10
-100 7 -13 14 -15 42 -13 192 l3 177 68 3 c64 3 67 4 67 27 0 24 -2 25 -70 25
l-70 0 0 60 c0 80 -15 79 -113 -5z"/>
<path d="M1967 815 c-88 -75 -100 -105 -42 -105 l35 0 0 -189 c0 -112 4 -201
11 -220 22 -64 133 -86 215 -43 78 40 67 85 -16 68 -86 -17 -85 -19 -85 195
l0 184 68 3 c64 3 67 4 67 27 0 24 -2 25 -70 25 l-70 0 0 60 c0 80 -15 79
-113 -5z"/>
<path d="M4165 849 c-118 -95 -142 -135 -82 -141 l32 -3 5 -206 c4 -185 7
-209 24 -228 39 -43 131 -50 201 -14 35 18 45 31 45 56 0 17 -6 18 -63 12 -90
-10 -91 -7 -95 182 -5 208 -8 201 76 205 61 3 67 5 70 26 3 21 0 22 -67 22
l-70 0 -3 57 c-4 71 -17 76 -73 32z"/>
<path d="M3241 778 c-32 -21 -37 -21 -121 -9 -128 18 -208 -3 -263 -69 -54
-63 -58 -146 -11 -215 l25 -37 -36 -35 c-46 -45 -49 -92 -6 -124 l30 -22 -35
-32 c-48 -46 -47 -86 4 -134 48 -46 98 -61 200 -61 95 0 166 21 218 63 63 52
83 140 44 190 -32 41 -77 50 -204 42 -62 -4 -127 -4 -145 0 -38 8 -56 37 -42
64 10 17 19 19 88 14 95 -6 151 7 199 49 55 49 67 81 61 163 -5 63 -3 73 14
83 28 18 43 62 27 78 -11 11 -19 9 -47 -8z m-162 -73 c32 -16 61 -69 61 -110
0 -90 -94 -154 -158 -109 -50 35 -65 108 -36 170 27 57 80 77 133 49z m111
-475 c58 -58 -26 -130 -153 -130 -84 0 -131 28 -135 81 -5 57 1 59 216 67 40
2 56 -2 72 -18z"/>
<path d="M1237 761 c-15 -10 -35 -28 -43 -40 -21 -30 -32 -26 -36 12 -3 31 -4
32 -48 31 -91 -3 -165 -61 -106 -83 40 -16 46 -40 46 -195 0 -133 -2 -148 -20
-166 -11 -11 -25 -20 -31 -20 -6 0 -9 -10 -7 -22 3 -20 12 -24 65 -32 35 -5
86 -5 120 0 49 8 58 12 61 31 3 17 -3 24 -23 29 -14 3 -30 14 -35 24 -14 26
-11 258 3 299 7 19 20 39 30 45 14 9 21 6 40 -16 50 -59 110 -36 110 42 0 72
-63 103 -126 61z"/>
<path d="M1535 771 c-96 -25 -155 -97 -113 -139 24 -24 58 -12 113 38 43 39
63 50 88 50 49 0 79 -37 85 -102 l4 -53 -98 0 c-119 0 -179 -23 -216 -83 -30
-49 -30 -125 0 -174 45 -73 158 -94 250 -46 l48 25 34 -29 c39 -32 56 -34 107
-13 61 26 71 60 23 77 -18 6 -32 19 -35 31 -2 12 -6 92 -7 177 -3 173 -10 195
-71 226 -36 19 -163 28 -212 15z m139 -268 l38 -6 -4 -69 c-7 -90 -27 -113
-98 -113 -65 0 -105 35 -105 94 0 75 66 111 169 94z"/>
<path d="M2439 766 c-124 -33 -199 -152 -186 -295 6 -70 34 -127 83 -171 53
-46 93 -60 172 -60 81 0 153 31 202 87 54 61 17 84 -54 33 -112 -81 -255 -23
-273 110 -3 22 -4 41 -2 42 2 1 83 4 179 7 l175 6 3 37 c13 154 -128 250 -299
204z m116 -60 c40 -17 77 -70 73 -106 -3 -25 -4 -25 -117 -28 -124 -3 -135 2
-124 48 10 40 35 72 68 86 39 17 58 17 100 0z"/>
<path d="M3435 764 c-102 -25 -136 -64 -75 -86 39 -13 43 -30 44 -200 l1 -139
-33 -27 c-60 -50 -33 -67 106 -66 65 1 87 5 100 18 18 19 17 21 -35 52 -17 10
-18 29 -18 235 0 254 7 237 -90 213z"/>
<path d="M3744 769 c-66 -19 -114 -100 -100 -172 9 -47 50 -85 142 -133 109
-56 138 -100 94 -144 -24 -24 -88 -27 -128 -6 -15 8 -38 33 -52 55 -28 47 -48
58 -68 37 -34 -33 20 -175 64 -168 10 2 30 2 44 1 14 -2 52 -3 85 -3 67 0 126
26 159 70 20 29 32 90 22 127 -9 37 -62 83 -146 128 -84 45 -100 61 -100 99 0
36 29 60 71 60 38 0 65 -19 98 -67 42 -62 88 -25 62 49 -25 71 -30 74 -127 75
-49 0 -103 -3 -120 -8z"/>
</g>
</svg>
